<svg xmlns="http://www.w3.org/2000/svg" width="24" height="24" viewBox="0 0 24 24"><path d="M12.415 23.417c-5.51 0-9.418-3.766-9.418-8.954 0-2.754 1.676-5.721 1.747-5.846a.742.742 0 0 1 .73-.361.728.728 0 0 1 .614.53c.004.018.455 1.683 1.052 2.607.4.623.806 1.063 1.263 1.367-.309-1.319-.546-3.306-.16-5.345C9.302 1.82 13.769.482 13.961.428a.741.741 0 0 1 .695.161.715.715 0 0 1 .224.668c-.007.039-.745 3.956.82 7.294.143.303.341.655.554 1.008.062-.484.155-.999.3-1.498.575-1.98 2.06-2.656 2.123-2.684a.737.737 0 0 1 .75.091.718.718 0 0 1 .268.697c-.008.049-.215 1.396.948 3.308 1.051 1.726 1.354 2.845 1.354 4.989-.002 5.189-4.031 8.955-9.582 8.955zM5.273 10.911c-.401.997-.814 2.324-.814 3.552 0 4.354 3.293 7.514 7.956 7.514 4.704 0 8.119-3.16 8.119-7.514 0-1.88-.236-2.752-1.146-4.248-.608-.999-.909-1.896-1.053-2.611a3.384 3.384 0 0 0-.377.853c-.445 1.535-.333 3.33-.332 3.349a.722.722 0 0 1-.485.726.735.735 0 0 1-.841-.263c-.055-.076-1.354-1.89-1.928-3.111-1.189-2.534-1.169-5.274-1.048-6.853-1.203.69-3.051 2.235-3.644 5.376-.578 3.057.545 6.113.557 6.144a.71.71 0 0 1-.133.733.74.74 0 0 1-.72.226c-.091-.021-2.147-.549-3.479-2.617a8.013 8.013 0 0 1-.632-1.256z"/></svg>
