<svg xmlns="http://www.w3.org/2000/svg" width="24" height="24" viewBox="0 0 24 24"><path fill-rule="evenodd" clip-rule="evenodd" d="M2.346 1.699h9.219c.364 0 .659.294.659.655a.658.658 0 0 1-.659.656H2.346a.657.657 0 0 1 0-1.311zM2.346 5.635h9.219c.364 0 .659.294.659.656s-.295.655-.659.655H2.346a.657.657 0 1 1 0-1.311zM2.346 9.57h9.219c.364 0 .659.294.659.656s-.295.655-.659.655H2.346a.657.657 0 1 1 0-1.311z"/><path d="M12.221 17.449c1.556 0 2.641 1.035 2.641 1.964 0 .93-1.085 1.966-2.641 1.966-1.557 0-2.642-1.036-2.642-1.966 0-.929 1.085-1.964 2.642-1.964m.015-1.322c-2.183 0-3.953 1.472-3.953 3.285 0 1.815 1.771 3.287 3.953 3.287 2.184 0 3.953-1.472 3.953-3.287 0-1.813-1.769-3.285-3.953-3.285z"/><path fill-rule="evenodd" clip-rule="evenodd" d="M15.124 1.942a.66.66 0 0 1 .931 0l6.439 6.414c.257.256.257.672 0 .928s-.674.256-.932 0L15.124 2.87a.655.655 0 0 1 0-.928z"/><path fill-rule="evenodd" clip-rule="evenodd" d="M15.516 1.781c.364 0 .658.293.658.655v17.055a.657.657 0 0 1-1.316 0V2.437a.656.656 0 0 1 .658-.656z"/></svg>
